<svg width="124" height="146" viewBox="0 0 124 146" fill="none" xmlns="http://www.w3.org/2000/svg">
<g id="Group 11442" opacity="0.1">
<path id="Subtract" fill-rule="evenodd" clip-rule="evenodd" d="M79.8132 -1.43022e-05C78.2035 23.6856 59.347 42.5421 35.6614 44.1519C59.347 45.7616 78.2035 64.6181 79.8132 88.3037C81.423 64.6181 100.28 45.7616 123.965 44.1519C100.28 42.5421 81.423 23.6856 79.8132 -1.43022e-05ZM79.6926 13.9443C79.5735 30.6738 66.0409 44.2064 49.3113 44.3256C66.0409 44.4447 79.5735 57.9773 79.6926 74.7068C79.8118 57.9773 93.3444 44.4447 110.074 44.3255C93.3444 44.2064 79.8118 30.6738 79.6926 13.9443Z" fill="#F4F5F5"/>
<path id="Subtract_2" fill-rule="evenodd" clip-rule="evenodd" d="M28.8187 88.3024C27.768 103.762 15.46 116.07 0 117.121C15.46 118.172 27.768 130.48 28.8187 145.94C29.8695 130.48 42.1774 118.172 57.6375 117.121C42.1774 116.07 29.8695 103.762 28.8187 88.3024ZM28.7395 97.4039C28.6618 108.324 19.8288 117.157 8.90912 117.234C19.8288 117.312 28.6618 126.145 28.7395 137.065C28.8173 126.145 37.6503 117.312 48.57 117.234C37.6503 117.157 28.8173 108.324 28.7395 97.4039Z" fill="#F4F5F5"/>
</g>
</svg>
