<svg width="22" height="23" viewBox="0 0 22 23" fill="none" xmlns="http://www.w3.org/2000/svg">
<g id="social icon/Solid/Facebook">
<path id="Union" d="M12.9897 2.65796C11.8676 2.65796 10.7915 3.10463 9.99808 3.8997C9.20466 4.69478 8.75892 5.77314 8.75892 6.89754V9.25796H6.49488C6.38121 9.25796 6.28906 9.3503 6.28906 9.46421V12.5809C6.28906 12.6948 6.38121 12.7871 6.49488 12.7871H8.75892V19.1809C8.75892 19.2948 8.85107 19.3871 8.96474 19.3871H12.0749C12.1886 19.3871 12.2807 19.2948 12.2807 19.1809V12.7871H14.5648C14.6593 12.7871 14.7416 12.7227 14.7645 12.6309L15.5421 9.51423C15.5745 9.38406 15.4763 9.25796 15.3424 9.25796H12.2807V6.89754C12.2807 6.70913 12.3554 6.52843 12.4884 6.3952C12.6213 6.26197 12.8017 6.18713 12.9897 6.18713H15.3681C15.4817 6.18713 15.5739 6.09478 15.5739 5.98088V2.86421C15.5739 2.7503 15.4817 2.65796 15.3681 2.65796H12.9897Z" fill="#303635"/>
</g>
</svg>
