<svg width="23" height="23" viewBox="0 0 23 23" fill="none" xmlns="http://www.w3.org/2000/svg">
<g id="social icon/Solid/Instagram">
<g id="Subtract">
<path d="M11.8815 8.04338C10.2395 8.04338 8.90848 9.37719 8.90848 11.0225C8.90848 12.6679 10.2395 14.0017 11.8815 14.0017C13.5234 14.0017 14.8544 12.6679 14.8544 11.0225C14.8544 9.37719 13.5234 8.04338 11.8815 8.04338Z" fill="#303635"/>
<path fill-rule="evenodd" clip-rule="evenodd" d="M7.09683 2.84722C10.251 2.49396 13.5119 2.49396 16.6661 2.84722C18.4027 3.04172 19.8034 4.41285 20.0072 6.15914C20.3843 9.3904 20.3843 12.6547 20.0072 15.8859C19.8034 17.6322 18.4027 19.0034 16.6661 19.1979C13.5119 19.5511 10.251 19.5511 7.09683 19.1979C5.36025 19.0034 3.95958 17.6322 3.75575 15.8859C3.37862 12.6547 3.37862 9.3904 3.75575 6.15914C3.95958 4.41285 5.36025 3.04172 7.09683 2.84722ZM16.4553 5.52254C15.95 5.52254 15.5405 5.93295 15.5405 6.43921C15.5405 6.94547 15.95 7.35588 16.4553 7.35588C16.9605 7.35588 17.37 6.94547 17.37 6.43921C17.37 5.93295 16.9605 5.52254 16.4553 5.52254ZM7.53634 11.0225C7.53634 8.6178 9.48171 6.66838 11.8815 6.66838C14.2812 6.66838 16.2266 8.6178 16.2266 11.0225C16.2266 13.4273 14.2812 15.3767 11.8815 15.3767C9.48171 15.3767 7.53634 13.4273 7.53634 11.0225Z" fill="#303635"/>
</g>
</g>
</svg>
