<svg width="23" height="23" viewBox="0 0 23 23" fill="none" xmlns="http://www.w3.org/2000/svg">
<g id="social icon/Solid/Twitter">
<path id="Vector" d="M20.7596 5.73084C20.8126 5.6568 20.7343 5.56121 20.6495 5.59414C20.0469 5.82819 19.4172 5.98611 18.7748 6.06393C19.4901 5.63573 20.042 4.98391 20.3481 4.2122C20.3792 4.13358 20.2936 4.06338 20.2197 4.10428C19.5549 4.47217 18.838 4.73708 18.0932 4.88965C18.062 4.89604 18.0299 4.8854 18.008 4.86226C17.4491 4.27131 16.7134 3.87784 15.9114 3.74187C15.0926 3.60305 14.2509 3.7405 13.5184 4.13268C12.7859 4.52486 12.204 5.14958 11.864 5.90886C11.5407 6.63079 11.4535 7.43554 11.6129 8.20841C11.6253 8.26837 11.5785 8.32499 11.5175 8.32119C10.0684 8.23101 8.65266 7.84479 7.35735 7.1858C6.06534 6.52848 4.92122 5.61405 3.99468 4.4989C3.95356 4.44941 3.87562 4.45581 3.84566 4.51278C3.55736 5.06101 3.40641 5.67206 3.40682 6.29309C3.40565 6.91128 3.55704 7.52016 3.84751 8.06553C4.13798 8.6109 4.55852 9.07583 5.07168 9.41893C4.52747 9.40409 3.99386 9.26927 3.50858 9.02483C3.44604 8.99332 3.37103 9.03818 3.37428 9.10824C3.41212 9.92338 3.71075 10.7417 4.22765 11.3696C4.77771 12.0377 5.54119 12.4949 6.38894 12.6639C6.0626 12.7634 5.72379 12.8159 5.3827 12.8198C5.19706 12.8176 5.01178 12.8039 4.82793 12.7787C4.75976 12.7693 4.7041 12.8342 4.72797 12.8989C4.98082 13.5841 5.42752 14.182 6.01487 14.6184C6.64281 15.085 7.40028 15.3438 8.18187 15.3589C6.86206 16.3996 5.23257 16.9675 3.55318 16.9723C3.38062 16.9728 3.20813 16.9672 3.03605 16.9555C2.93908 16.9488 2.89448 17.0783 2.97806 17.128C4.61436 18.1011 6.48461 18.6154 8.39226 18.6131C9.80071 18.6277 11.198 18.361 12.5024 17.8285C13.8068 17.296 14.9923 16.5083 15.9895 15.5115C16.9868 14.5148 17.7758 13.3289 18.3106 12.0231C18.8454 10.7173 19.1151 9.31784 19.1041 7.90643V7.46658C19.1041 7.43764 19.1178 7.41043 19.1408 7.39299C19.7613 6.92352 20.3069 6.36304 20.7596 5.73084Z" fill="#303635"/>
</g>
</svg>
